<svg xmlns="http://www.w3.org/2000/svg" viewBox="0 0 101.69 72.61"><defs><style>.cls-1{opacity:0.6;}.cls-2{fill:#f1f2f2;}.cls-2,.cls-3{stroke:#e6e7e8;opacity:0.43;}.cls-2,.cls-3,.cls-6,.cls-7{stroke-width:3px;}.cls-3{fill:#fff;}.cls-4{fill:#68c93e;}.cls-4,.cls-8{opacity:0.5;}.cls-5,.cls-6,.cls-7{fill:none;stroke-linecap:round;}.cls-5{stroke:#87d37c;stroke-width:3px;}.cls-6,.cls-7{stroke:#6d6e71;}.cls-6{stroke-linejoin:round;}.cls-8{fill:#ffca00;}</style></defs><title>kios</title><g id="Layer_2" data-name="Layer 2"><g id="Layer_1-2" data-name="Layer 1"><g class="cls-1"><path class="cls-2" d="M100.19,72.61a49.35,49.35,0,0,0-98.69,0"/><path class="cls-3" d="M89.54,72.61a38.7,38.7,0,0,0-77.39,0"/></g><polygon class="cls-4" points="93.19 21.15 10.55 21.15 23.15 1.5 80.46 1.5 93.19 21.15"/><path id="Path-26" class="cls-5" d="M66.58,63.26h9.6"/><path id="Path-26-2" class="cls-6" d="M27.73,7.23H52.89"/><path class="cls-7" d="M16.9,28.6V66.92c0,1.9,1.84,3.45,4.11,3.45H82.74c2.27,0,4.11-1.54,4.11-3.45h0V28.6"/><rect class="cls-8" x="27.24" y="40.36" width="20.38" height="29.83"/><rect class="cls-7" x="27.24" y="40.36" width="20.38" height="29.83"/><polygon class="cls-6" points="93.19 21.15 10.55 21.15 23.15 1.5 80.46 1.5 93.19 21.15"/><path class="cls-4" d="M10.55,21.3H31.21c-.94,4.16-5.29,7.16-10.34,7.13S11.47,25.46,10.55,21.3Z"/><path class="cls-4" d="M31.21,21.3H51.88c-1.1,4.78-6.62,7.91-12.33,7C35.33,27.6,32,24.84,31.21,21.3Z"/><path class="cls-4" d="M51.88,21.3H72.54c-1.1,4.78-6.62,7.91-12.33,7C56,27.6,52.69,24.84,51.88,21.3Z"/><path class="cls-4" d="M72.54,21.3H93.19c-1.1,4.78-6.62,7.91-12.33,7-4.22-.68-7.52-3.45-8.33-7Z"/><path class="cls-6" d="M10.55,21.3H31.21c-.94,4.16-5.29,7.16-10.34,7.13S11.47,25.46,10.55,21.3Z"/><path class="cls-7" d="M31.21,21.3H51.88c-1.1,4.78-6.62,7.91-12.33,7C35.33,27.6,32,24.84,31.21,21.3Z"/><path class="cls-7" d="M51.88,21.3H72.54c-1.1,4.78-6.62,7.91-12.33,7C56,27.6,52.69,24.84,51.88,21.3Z"/><path class="cls-6" d="M72.54,21.3H93.19c-1.1,4.78-6.62,7.91-12.33,7-4.22-.68-7.52-3.45-8.33-7Z"/><rect class="cls-7" x="56.73" y="40.36" width="19.69" height="12.71"/></g></g></svg>